<?xml version="1.0" encoding="UTF-8" standalone="no"?>
<!DOCTYPE svg PUBLIC "-//W3C//DTD SVG 1.1//EN"
 "http://www.w3.org/Graphics/SVG/1.1/DTD/svg11.dtd">
<!-- Generated by graphviz version 3.0.0 (20220226.1711)
 -->
<!-- Title: G Pages: 1 -->
<svg width="1309pt" height="646pt"
 viewBox="0.00 0.00 1346.85 664.80" xmlns="http://www.w3.org/2000/svg" xmlns:xlink="http://www.w3.org/1999/xlink">
<g id="graph0" class="graph" transform="scale(0.972222 0.972222) rotate(0) translate(4 660.8)">
<title>G</title>
<polygon fill="white" stroke="transparent" points="-4,4 -4,-660.8 1342.85,-660.8 1342.85,4 -4,4"/>
<!-- 139728677924096 -->
<g id="node1" class="node">
<title>139728677924096</title>
<polygon fill="none" stroke="black" points="460.52,-606.7 460.52,-656.3 864.33,-656.3 864.33,-606.7 460.52,-606.7"/>
<text text-anchor="middle" x="499.62" y="-639.7" font-family="Times,serif" font-size="14.00">input_1</text>
<polyline fill="none" stroke="black" points="460.52,-631.5 538.71,-631.5 "/>
<text text-anchor="middle" x="499.62" y="-614.9" font-family="Times,serif" font-size="14.00">InputLayer</text>
<polyline fill="none" stroke="black" points="538.71,-606.7 538.71,-656.3 "/>
<text text-anchor="middle" x="566.55" y="-639.7" font-family="Times,serif" font-size="14.00">input:</text>
<polyline fill="none" stroke="black" points="538.71,-631.5 594.38,-631.5 "/>
<text text-anchor="middle" x="566.55" y="-614.9" font-family="Times,serif" font-size="14.00">output:</text>
<polyline fill="none" stroke="black" points="594.38,-606.7 594.38,-656.3 "/>
<text text-anchor="middle" x="661.87" y="-627.7" font-family="Times,serif" font-size="14.00">[(None, 300, 300, 3)]</text>
<polyline fill="none" stroke="black" points="729.36,-606.7 729.36,-656.3 "/>
<text text-anchor="middle" x="796.84" y="-627.7" font-family="Times,serif" font-size="14.00">[(None, 300, 300, 3)]</text>
</g>
<!-- 139728677924240 -->
<g id="node2" class="node">
<title>139728677924240</title>
<polygon fill="none" stroke="black" points="49.72,-520.1 49.72,-569.7 427.13,-569.7 427.13,-520.1 49.72,-520.1"/>
<text text-anchor="middle" x="81.44" y="-553.1" font-family="Times,serif" font-size="14.00">conv2d</text>
<polyline fill="none" stroke="black" points="49.72,-544.9 113.17,-544.9 "/>
<text text-anchor="middle" x="81.44" y="-528.3" font-family="Times,serif" font-size="14.00">Conv2D</text>
<polyline fill="none" stroke="black" points="113.17,-520.1 113.17,-569.7 "/>
<text text-anchor="middle" x="141" y="-553.1" font-family="Times,serif" font-size="14.00">input:</text>
<polyline fill="none" stroke="black" points="113.17,-544.9 168.83,-544.9 "/>
<text text-anchor="middle" x="141" y="-528.3" font-family="Times,serif" font-size="14.00">output:</text>
<polyline fill="none" stroke="black" points="168.83,-520.1 168.83,-569.7 "/>
<text text-anchor="middle" x="231.66" y="-541.1" font-family="Times,serif" font-size="14.00">(None, 300, 300, 3)</text>
<polyline fill="none" stroke="black" points="294.48,-520.1 294.48,-569.7 "/>
<text text-anchor="middle" x="360.81" y="-541.1" font-family="Times,serif" font-size="14.00">(None, 300, 300, 32)</text>
</g>
<!-- 139728677924096&#45;&gt;139728677924240 -->
<g id="edge1" class="edge">
<title>139728677924096&#45;&gt;139728677924240</title>
<path fill="none" stroke="black" d="M542.91,-606.65C488.26,-595.75 423.43,-582.81 367.66,-571.69"/>
<polygon fill="black" stroke="black" points="368.21,-568.23 357.71,-569.7 366.84,-575.09 368.21,-568.23"/>
</g>
<!-- 139728648915456 -->
<g id="node3" class="node">
<title>139728648915456</title>
<polygon fill="none" stroke="black" points="469.83,-520.1 469.83,-569.7 855.01,-569.7 855.01,-520.1 469.83,-520.1"/>
<text text-anchor="middle" x="505.44" y="-553.1" font-family="Times,serif" font-size="14.00">conv2d_1</text>
<polyline fill="none" stroke="black" points="469.83,-544.9 541.05,-544.9 "/>
<text text-anchor="middle" x="505.44" y="-528.3" font-family="Times,serif" font-size="14.00">Conv2D</text>
<polyline fill="none" stroke="black" points="541.05,-520.1 541.05,-569.7 "/>
<text text-anchor="middle" x="568.88" y="-553.1" font-family="Times,serif" font-size="14.00">input:</text>
<polyline fill="none" stroke="black" points="541.05,-544.9 596.72,-544.9 "/>
<text text-anchor="middle" x="568.88" y="-528.3" font-family="Times,serif" font-size="14.00">output:</text>
<polyline fill="none" stroke="black" points="596.72,-520.1 596.72,-569.7 "/>
<text text-anchor="middle" x="659.54" y="-541.1" font-family="Times,serif" font-size="14.00">(None, 300, 300, 3)</text>
<polyline fill="none" stroke="black" points="722.37,-520.1 722.37,-569.7 "/>
<text text-anchor="middle" x="788.69" y="-541.1" font-family="Times,serif" font-size="14.00">(None, 300, 300, 32)</text>
</g>
<!-- 139728677924096&#45;&gt;139728648915456 -->
<g id="edge2" class="edge">
<title>139728677924096&#45;&gt;139728648915456</title>
<path fill="none" stroke="black" d="M662.42,-606.48C662.42,-598.27 662.42,-588.91 662.42,-580.05"/>
<polygon fill="black" stroke="black" points="665.92,-579.98 662.42,-569.98 658.92,-579.98 665.92,-579.98"/>
</g>
<!-- 139728648114768 -->
<g id="node4" class="node">
<title>139728648114768</title>
<polygon fill="none" stroke="black" points="899.83,-520.1 899.83,-569.7 1285.01,-569.7 1285.01,-520.1 899.83,-520.1"/>
<text text-anchor="middle" x="935.44" y="-553.1" font-family="Times,serif" font-size="14.00">conv2d_2</text>
<polyline fill="none" stroke="black" points="899.83,-544.9 971.05,-544.9 "/>
<text text-anchor="middle" x="935.44" y="-528.3" font-family="Times,serif" font-size="14.00">Conv2D</text>
<polyline fill="none" stroke="black" points="971.05,-520.1 971.05,-569.7 "/>
<text text-anchor="middle" x="998.88" y="-553.1" font-family="Times,serif" font-size="14.00">input:</text>
<polyline fill="none" stroke="black" points="971.05,-544.9 1026.72,-544.9 "/>
<text text-anchor="middle" x="998.88" y="-528.3" font-family="Times,serif" font-size="14.00">output:</text>
<polyline fill="none" stroke="black" points="1026.72,-520.1 1026.72,-569.7 "/>
<text text-anchor="middle" x="1089.54" y="-541.1" font-family="Times,serif" font-size="14.00">(None, 300, 300, 3)</text>
<polyline fill="none" stroke="black" points="1152.37,-520.1 1152.37,-569.7 "/>
<text text-anchor="middle" x="1218.69" y="-541.1" font-family="Times,serif" font-size="14.00">(None, 300, 300, 32)</text>
</g>
<!-- 139728677924096&#45;&gt;139728648114768 -->
<g id="edge3" class="edge">
<title>139728677924096&#45;&gt;139728648114768</title>
<path fill="none" stroke="black" d="M783.63,-606.65C839.05,-595.75 904.8,-582.81 961.36,-571.69"/>
<polygon fill="black" stroke="black" points="962.31,-575.07 971.45,-569.7 960.96,-568.2 962.31,-575.07"/>
</g>
<!-- 139728677606064 -->
<g id="node5" class="node">
<title>139728677606064</title>
<polygon fill="none" stroke="black" points="0,-433.5 0,-483.1 424.85,-483.1 424.85,-433.5 0,-433.5"/>
<text text-anchor="middle" x="51.94" y="-466.5" font-family="Times,serif" font-size="14.00">max_pooling2d</text>
<polyline fill="none" stroke="black" points="0,-458.3 103.88,-458.3 "/>
<text text-anchor="middle" x="51.94" y="-441.7" font-family="Times,serif" font-size="14.00">MaxPooling2D</text>
<polyline fill="none" stroke="black" points="103.88,-433.5 103.88,-483.1 "/>
<text text-anchor="middle" x="131.72" y="-466.5" font-family="Times,serif" font-size="14.00">input:</text>
<polyline fill="none" stroke="black" points="103.88,-458.3 159.55,-458.3 "/>
<text text-anchor="middle" x="131.72" y="-441.7" font-family="Times,serif" font-size="14.00">output:</text>
<polyline fill="none" stroke="black" points="159.55,-433.5 159.55,-483.1 "/>
<text text-anchor="middle" x="225.88" y="-454.5" font-family="Times,serif" font-size="14.00">(None, 300, 300, 32)</text>
<polyline fill="none" stroke="black" points="292.2,-433.5 292.2,-483.1 "/>
<text text-anchor="middle" x="358.52" y="-454.5" font-family="Times,serif" font-size="14.00">(None, 150, 150, 32)</text>
</g>
<!-- 139728677924240&#45;&gt;139728677606064 -->
<g id="edge4" class="edge">
<title>139728677924240&#45;&gt;139728677606064</title>
<path fill="none" stroke="black" d="M231.04,-519.88C228.49,-511.58 225.58,-502.11 222.83,-493.16"/>
<polygon fill="black" stroke="black" points="226.11,-491.91 219.82,-483.38 219.42,-493.96 226.11,-491.91"/>
</g>
<!-- 139728648916464 -->
<g id="node6" class="node">
<title>139728648916464</title>
<polygon fill="none" stroke="black" points="443,-433.5 443,-483.1 881.85,-483.1 881.85,-433.5 443,-433.5"/>
<text text-anchor="middle" x="501.94" y="-466.5" font-family="Times,serif" font-size="14.00">max_pooling2d_1</text>
<polyline fill="none" stroke="black" points="443,-458.3 560.88,-458.3 "/>
<text text-anchor="middle" x="501.94" y="-441.7" font-family="Times,serif" font-size="14.00">MaxPooling2D</text>
<polyline fill="none" stroke="black" points="560.88,-433.5 560.88,-483.1 "/>
<text text-anchor="middle" x="588.72" y="-466.5" font-family="Times,serif" font-size="14.00">input:</text>
<polyline fill="none" stroke="black" points="560.88,-458.3 616.55,-458.3 "/>
<text text-anchor="middle" x="588.72" y="-441.7" font-family="Times,serif" font-size="14.00">output:</text>
<polyline fill="none" stroke="black" points="616.55,-433.5 616.55,-483.1 "/>
<text text-anchor="middle" x="682.88" y="-454.5" font-family="Times,serif" font-size="14.00">(None, 300, 300, 32)</text>
<polyline fill="none" stroke="black" points="749.2,-433.5 749.2,-483.1 "/>
<text text-anchor="middle" x="815.52" y="-454.5" font-family="Times,serif" font-size="14.00">(None, 150, 150, 32)</text>
</g>
<!-- 139728648915456&#45;&gt;139728648916464 -->
<g id="edge5" class="edge">
<title>139728648915456&#45;&gt;139728648916464</title>
<path fill="none" stroke="black" d="M662.42,-519.88C662.42,-511.67 662.42,-502.31 662.42,-493.45"/>
<polygon fill="black" stroke="black" points="665.92,-493.38 662.42,-483.38 658.92,-493.38 665.92,-493.38"/>
</g>
<!-- 139728665840992 -->
<g id="node7" class="node">
<title>139728665840992</title>
<polygon fill="none" stroke="black" points="900,-433.5 900,-483.1 1338.85,-483.1 1338.85,-433.5 900,-433.5"/>
<text text-anchor="middle" x="958.94" y="-466.5" font-family="Times,serif" font-size="14.00">max_pooling2d_2</text>
<polyline fill="none" stroke="black" points="900,-458.3 1017.88,-458.3 "/>
<text text-anchor="middle" x="958.94" y="-441.7" font-family="Times,serif" font-size="14.00">MaxPooling2D</text>
<polyline fill="none" stroke="black" points="1017.88,-433.5 1017.88,-483.1 "/>
<text text-anchor="middle" x="1045.72" y="-466.5" font-family="Times,serif" font-size="14.00">input:</text>
<polyline fill="none" stroke="black" points="1017.88,-458.3 1073.55,-458.3 "/>
<text text-anchor="middle" x="1045.72" y="-441.7" font-family="Times,serif" font-size="14.00">output:</text>
<polyline fill="none" stroke="black" points="1073.55,-433.5 1073.55,-483.1 "/>
<text text-anchor="middle" x="1139.88" y="-454.5" font-family="Times,serif" font-size="14.00">(None, 300, 300, 32)</text>
<polyline fill="none" stroke="black" points="1206.2,-433.5 1206.2,-483.1 "/>
<text text-anchor="middle" x="1272.52" y="-454.5" font-family="Times,serif" font-size="14.00">(None, 150, 150, 32)</text>
</g>
<!-- 139728648114768&#45;&gt;139728665840992 -->
<g id="edge6" class="edge">
<title>139728648114768&#45;&gt;139728665840992</title>
<path fill="none" stroke="black" d="M1100.09,-519.88C1102.74,-511.58 1105.76,-502.11 1108.62,-493.16"/>
<polygon fill="black" stroke="black" points="1112.03,-493.97 1111.74,-483.38 1105.37,-491.84 1112.03,-493.97"/>
</g>
<!-- 139728677607600 -->
<g id="node8" class="node">
<title>139728677607600</title>
<polygon fill="none" stroke="black" points="43.95,-346.9 43.95,-396.5 422.9,-396.5 422.9,-346.9 43.95,-346.9"/>
<text text-anchor="middle" x="69.44" y="-379.9" font-family="Times,serif" font-size="14.00">dense</text>
<polyline fill="none" stroke="black" points="43.95,-371.7 94.93,-371.7 "/>
<text text-anchor="middle" x="69.44" y="-355.1" font-family="Times,serif" font-size="14.00">Dense</text>
<polyline fill="none" stroke="black" points="94.93,-346.9 94.93,-396.5 "/>
<text text-anchor="middle" x="122.77" y="-379.9" font-family="Times,serif" font-size="14.00">input:</text>
<polyline fill="none" stroke="black" points="94.93,-371.7 150.6,-371.7 "/>
<text text-anchor="middle" x="122.77" y="-355.1" font-family="Times,serif" font-size="14.00">output:</text>
<polyline fill="none" stroke="black" points="150.6,-346.9 150.6,-396.5 "/>
<text text-anchor="middle" x="216.93" y="-367.9" font-family="Times,serif" font-size="14.00">(None, 150, 150, 32)</text>
<polyline fill="none" stroke="black" points="283.25,-346.9 283.25,-396.5 "/>
<text text-anchor="middle" x="353.08" y="-367.9" font-family="Times,serif" font-size="14.00">(None, 150, 150, 128)</text>
</g>
<!-- 139728677606064&#45;&gt;139728677607600 -->
<g id="edge7" class="edge">
<title>139728677606064&#45;&gt;139728677607600</title>
<path fill="none" stroke="black" d="M218.39,-433.28C220.45,-424.98 222.8,-415.51 225.02,-406.56"/>
<polygon fill="black" stroke="black" points="228.44,-407.33 227.45,-396.78 221.64,-405.64 228.44,-407.33"/>
</g>
<!-- 139728648916176 -->
<g id="node9" class="node">
<title>139728648916176</title>
<polygon fill="none" stroke="black" points="467.5,-346.9 467.5,-396.5 857.35,-396.5 857.35,-346.9 467.5,-346.9"/>
<text text-anchor="middle" x="498.44" y="-379.9" font-family="Times,serif" font-size="14.00">dense_3</text>
<polyline fill="none" stroke="black" points="467.5,-371.7 529.38,-371.7 "/>
<text text-anchor="middle" x="498.44" y="-355.1" font-family="Times,serif" font-size="14.00">Dense</text>
<polyline fill="none" stroke="black" points="529.38,-346.9 529.38,-396.5 "/>
<text text-anchor="middle" x="557.21" y="-379.9" font-family="Times,serif" font-size="14.00">input:</text>
<polyline fill="none" stroke="black" points="529.38,-371.7 585.05,-371.7 "/>
<text text-anchor="middle" x="557.21" y="-355.1" font-family="Times,serif" font-size="14.00">output:</text>
<polyline fill="none" stroke="black" points="585.05,-346.9 585.05,-396.5 "/>
<text text-anchor="middle" x="651.37" y="-367.9" font-family="Times,serif" font-size="14.00">(None, 150, 150, 32)</text>
<polyline fill="none" stroke="black" points="717.7,-346.9 717.7,-396.5 "/>
<text text-anchor="middle" x="787.52" y="-367.9" font-family="Times,serif" font-size="14.00">(None, 150, 150, 128)</text>
</g>
<!-- 139728648916464&#45;&gt;139728648916176 -->
<g id="edge8" class="edge">
<title>139728648916464&#45;&gt;139728648916176</title>
<path fill="none" stroke="black" d="M662.42,-433.28C662.42,-425.07 662.42,-415.71 662.42,-406.85"/>
<polygon fill="black" stroke="black" points="665.92,-406.78 662.42,-396.78 658.92,-406.78 665.92,-406.78"/>
</g>
<!-- 139728665840176 -->
<g id="node10" class="node">
<title>139728665840176</title>
<polygon fill="none" stroke="black" points="899.5,-346.9 899.5,-396.5 1289.35,-396.5 1289.35,-346.9 899.5,-346.9"/>
<text text-anchor="middle" x="930.44" y="-379.9" font-family="Times,serif" font-size="14.00">dense_6</text>
<polyline fill="none" stroke="black" points="899.5,-371.7 961.38,-371.7 "/>
<text text-anchor="middle" x="930.44" y="-355.1" font-family="Times,serif" font-size="14.00">Dense</text>
<polyline fill="none" stroke="black" points="961.38,-346.9 961.38,-396.5 "/>
<text text-anchor="middle" x="989.21" y="-379.9" font-family="Times,serif" font-size="14.00">input:</text>
<polyline fill="none" stroke="black" points="961.38,-371.7 1017.05,-371.7 "/>
<text text-anchor="middle" x="989.21" y="-355.1" font-family="Times,serif" font-size="14.00">output:</text>
<polyline fill="none" stroke="black" points="1017.05,-346.9 1017.05,-396.5 "/>
<text text-anchor="middle" x="1083.37" y="-367.9" font-family="Times,serif" font-size="14.00">(None, 150, 150, 32)</text>
<polyline fill="none" stroke="black" points="1149.7,-346.9 1149.7,-396.5 "/>
<text text-anchor="middle" x="1219.52" y="-367.9" font-family="Times,serif" font-size="14.00">(None, 150, 150, 128)</text>
</g>
<!-- 139728665840992&#45;&gt;139728665840176 -->
<g id="edge9" class="edge">
<title>139728665840992&#45;&gt;139728665840176</title>
<path fill="none" stroke="black" d="M1112.33,-433.28C1109.87,-424.98 1107.07,-415.51 1104.43,-406.56"/>
<polygon fill="black" stroke="black" points="1107.73,-405.37 1101.54,-396.78 1101.02,-407.36 1107.73,-405.37"/>
</g>
<!-- 139728677605728 -->
<g id="node11" class="node">
<title>139728677605728</title>
<polygon fill="none" stroke="black" points="49.5,-260.3 49.5,-309.9 439.35,-309.9 439.35,-260.3 49.5,-260.3"/>
<text text-anchor="middle" x="80.44" y="-293.3" font-family="Times,serif" font-size="14.00">dense_1</text>
<polyline fill="none" stroke="black" points="49.5,-285.1 111.38,-285.1 "/>
<text text-anchor="middle" x="80.44" y="-268.5" font-family="Times,serif" font-size="14.00">Dense</text>
<polyline fill="none" stroke="black" points="111.38,-260.3 111.38,-309.9 "/>
<text text-anchor="middle" x="139.21" y="-293.3" font-family="Times,serif" font-size="14.00">input:</text>
<polyline fill="none" stroke="black" points="111.38,-285.1 167.05,-285.1 "/>
<text text-anchor="middle" x="139.21" y="-268.5" font-family="Times,serif" font-size="14.00">output:</text>
<polyline fill="none" stroke="black" points="167.05,-260.3 167.05,-309.9 "/>
<text text-anchor="middle" x="236.87" y="-281.3" font-family="Times,serif" font-size="14.00">(None, 150, 150, 128)</text>
<polyline fill="none" stroke="black" points="306.7,-260.3 306.7,-309.9 "/>
<text text-anchor="middle" x="373.02" y="-281.3" font-family="Times,serif" font-size="14.00">(None, 150, 150, 32)</text>
</g>
<!-- 139728677607600&#45;&gt;139728677605728 -->
<g id="edge10" class="edge">
<title>139728677607600&#45;&gt;139728677605728</title>
<path fill="none" stroke="black" d="M236.55,-346.68C237.62,-338.47 238.83,-329.11 239.98,-320.25"/>
<polygon fill="black" stroke="black" points="243.48,-320.54 241.29,-310.18 236.53,-319.64 243.48,-320.54"/>
</g>
<!-- 139728648916656 -->
<g id="node12" class="node">
<title>139728648916656</title>
<polygon fill="none" stroke="black" points="467.5,-260.3 467.5,-309.9 857.35,-309.9 857.35,-260.3 467.5,-260.3"/>
<text text-anchor="middle" x="498.44" y="-293.3" font-family="Times,serif" font-size="14.00">dense_4</text>
<polyline fill="none" stroke="black" points="467.5,-285.1 529.38,-285.1 "/>
<text text-anchor="middle" x="498.44" y="-268.5" font-family="Times,serif" font-size="14.00">Dense</text>
<polyline fill="none" stroke="black" points="529.38,-260.3 529.38,-309.9 "/>
<text text-anchor="middle" x="557.21" y="-293.3" font-family="Times,serif" font-size="14.00">input:</text>
<polyline fill="none" stroke="black" points="529.38,-285.1 585.05,-285.1 "/>
<text text-anchor="middle" x="557.21" y="-268.5" font-family="Times,serif" font-size="14.00">output:</text>
<polyline fill="none" stroke="black" points="585.05,-260.3 585.05,-309.9 "/>
<text text-anchor="middle" x="654.87" y="-281.3" font-family="Times,serif" font-size="14.00">(None, 150, 150, 128)</text>
<polyline fill="none" stroke="black" points="724.7,-260.3 724.7,-309.9 "/>
<text text-anchor="middle" x="791.02" y="-281.3" font-family="Times,serif" font-size="14.00">(None, 150, 150, 32)</text>
</g>
<!-- 139728648916176&#45;&gt;139728648916656 -->
<g id="edge11" class="edge">
<title>139728648916176&#45;&gt;139728648916656</title>
<path fill="none" stroke="black" d="M662.42,-346.68C662.42,-338.47 662.42,-329.11 662.42,-320.25"/>
<polygon fill="black" stroke="black" points="665.92,-320.18 662.42,-310.18 658.92,-320.18 665.92,-320.18"/>
</g>
<!-- 139728648914592 -->
<g id="node13" class="node">
<title>139728648914592</title>
<polygon fill="none" stroke="black" points="891.5,-260.3 891.5,-309.9 1281.35,-309.9 1281.35,-260.3 891.5,-260.3"/>
<text text-anchor="middle" x="922.44" y="-293.3" font-family="Times,serif" font-size="14.00">dense_7</text>
<polyline fill="none" stroke="black" points="891.5,-285.1 953.38,-285.1 "/>
<text text-anchor="middle" x="922.44" y="-268.5" font-family="Times,serif" font-size="14.00">Dense</text>
<polyline fill="none" stroke="black" points="953.38,-260.3 953.38,-309.9 "/>
<text text-anchor="middle" x="981.21" y="-293.3" font-family="Times,serif" font-size="14.00">input:</text>
<polyline fill="none" stroke="black" points="953.38,-285.1 1009.05,-285.1 "/>
<text text-anchor="middle" x="981.21" y="-268.5" font-family="Times,serif" font-size="14.00">output:</text>
<polyline fill="none" stroke="black" points="1009.05,-260.3 1009.05,-309.9 "/>
<text text-anchor="middle" x="1078.87" y="-281.3" font-family="Times,serif" font-size="14.00">(None, 150, 150, 128)</text>
<polyline fill="none" stroke="black" points="1148.7,-260.3 1148.7,-309.9 "/>
<text text-anchor="middle" x="1215.02" y="-281.3" font-family="Times,serif" font-size="14.00">(None, 150, 150, 32)</text>
</g>
<!-- 139728665840176&#45;&gt;139728648914592 -->
<g id="edge12" class="edge">
<title>139728665840176&#45;&gt;139728648914592</title>
<path fill="none" stroke="black" d="M1092.15,-346.68C1091.38,-338.47 1090.49,-329.11 1089.65,-320.25"/>
<polygon fill="black" stroke="black" points="1093.13,-319.8 1088.7,-310.18 1086.16,-320.46 1093.13,-319.8"/>
</g>
<!-- 139728648824048 -->
<g id="node14" class="node">
<title>139728648824048</title>
<polygon fill="none" stroke="black" points="62,-173.7 62,-223.3 444.85,-223.3 444.85,-173.7 62,-173.7"/>
<text text-anchor="middle" x="92.94" y="-206.7" font-family="Times,serif" font-size="14.00">dense_2</text>
<polyline fill="none" stroke="black" points="62,-198.5 123.88,-198.5 "/>
<text text-anchor="middle" x="92.94" y="-181.9" font-family="Times,serif" font-size="14.00">Dense</text>
<polyline fill="none" stroke="black" points="123.88,-173.7 123.88,-223.3 "/>
<text text-anchor="middle" x="151.71" y="-206.7" font-family="Times,serif" font-size="14.00">input:</text>
<polyline fill="none" stroke="black" points="123.88,-198.5 179.55,-198.5 "/>
<text text-anchor="middle" x="151.71" y="-181.9" font-family="Times,serif" font-size="14.00">output:</text>
<polyline fill="none" stroke="black" points="179.55,-173.7 179.55,-223.3 "/>
<text text-anchor="middle" x="245.87" y="-194.7" font-family="Times,serif" font-size="14.00">(None, 150, 150, 32)</text>
<polyline fill="none" stroke="black" points="312.2,-173.7 312.2,-223.3 "/>
<text text-anchor="middle" x="378.52" y="-194.7" font-family="Times,serif" font-size="14.00">(None, 150, 150, 10)</text>
</g>
<!-- 139728677605728&#45;&gt;139728648824048 -->
<g id="edge13" class="edge">
<title>139728677605728&#45;&gt;139728648824048</title>
<path fill="none" stroke="black" d="M246.98,-260.08C247.85,-251.87 248.85,-242.51 249.79,-233.65"/>
<polygon fill="black" stroke="black" points="253.29,-233.89 250.86,-223.58 246.32,-233.15 253.29,-233.89"/>
</g>
<!-- 139728648420896 -->
<g id="node15" class="node">
<title>139728648420896</title>
<polygon fill="none" stroke="black" points="471,-173.7 471,-223.3 853.85,-223.3 853.85,-173.7 471,-173.7"/>
<text text-anchor="middle" x="501.94" y="-206.7" font-family="Times,serif" font-size="14.00">dense_5</text>
<polyline fill="none" stroke="black" points="471,-198.5 532.88,-198.5 "/>
<text text-anchor="middle" x="501.94" y="-181.9" font-family="Times,serif" font-size="14.00">Dense</text>
<polyline fill="none" stroke="black" points="532.88,-173.7 532.88,-223.3 "/>
<text text-anchor="middle" x="560.71" y="-206.7" font-family="Times,serif" font-size="14.00">input:</text>
<polyline fill="none" stroke="black" points="532.88,-198.5 588.55,-198.5 "/>
<text text-anchor="middle" x="560.71" y="-181.9" font-family="Times,serif" font-size="14.00">output:</text>
<polyline fill="none" stroke="black" points="588.55,-173.7 588.55,-223.3 "/>
<text text-anchor="middle" x="654.87" y="-194.7" font-family="Times,serif" font-size="14.00">(None, 150, 150, 32)</text>
<polyline fill="none" stroke="black" points="721.2,-173.7 721.2,-223.3 "/>
<text text-anchor="middle" x="787.52" y="-194.7" font-family="Times,serif" font-size="14.00">(None, 150, 150, 10)</text>
</g>
<!-- 139728648916656&#45;&gt;139728648420896 -->
<g id="edge14" class="edge">
<title>139728648916656&#45;&gt;139728648420896</title>
<path fill="none" stroke="black" d="M662.42,-260.08C662.42,-251.87 662.42,-242.51 662.42,-233.65"/>
<polygon fill="black" stroke="black" points="665.92,-233.58 662.42,-223.58 658.92,-233.58 665.92,-233.58"/>
</g>
<!-- 139730727661872 -->
<g id="node16" class="node">
<title>139730727661872</title>
<polygon fill="none" stroke="black" points="887,-173.7 887,-223.3 1269.85,-223.3 1269.85,-173.7 887,-173.7"/>
<text text-anchor="middle" x="917.94" y="-206.7" font-family="Times,serif" font-size="14.00">dense_8</text>
<polyline fill="none" stroke="black" points="887,-198.5 948.88,-198.5 "/>
<text text-anchor="middle" x="917.94" y="-181.9" font-family="Times,serif" font-size="14.00">Dense</text>
<polyline fill="none" stroke="black" points="948.88,-173.7 948.88,-223.3 "/>
<text text-anchor="middle" x="976.71" y="-206.7" font-family="Times,serif" font-size="14.00">input:</text>
<polyline fill="none" stroke="black" points="948.88,-198.5 1004.55,-198.5 "/>
<text text-anchor="middle" x="976.71" y="-181.9" font-family="Times,serif" font-size="14.00">output:</text>
<polyline fill="none" stroke="black" points="1004.55,-173.7 1004.55,-223.3 "/>
<text text-anchor="middle" x="1070.87" y="-194.7" font-family="Times,serif" font-size="14.00">(None, 150, 150, 32)</text>
<polyline fill="none" stroke="black" points="1137.2,-173.7 1137.2,-223.3 "/>
<text text-anchor="middle" x="1203.52" y="-194.7" font-family="Times,serif" font-size="14.00">(None, 150, 150, 10)</text>
</g>
<!-- 139728648914592&#45;&gt;139730727661872 -->
<g id="edge15" class="edge">
<title>139728648914592&#45;&gt;139730727661872</title>
<path fill="none" stroke="black" d="M1084.15,-260.08C1083.38,-251.87 1082.49,-242.51 1081.65,-233.65"/>
<polygon fill="black" stroke="black" points="1085.13,-233.2 1080.7,-223.58 1078.16,-233.86 1085.13,-233.2"/>
</g>
<!-- 139728648116544 -->
<g id="node17" class="node">
<title>139728648116544</title>
<polygon fill="none" stroke="black" points="331.04,-87.1 331.04,-136.7 993.81,-136.7 993.81,-87.1 331.04,-87.1"/>
<text text-anchor="middle" x="373.63" y="-120.1" font-family="Times,serif" font-size="14.00">concatenate</text>
<polyline fill="none" stroke="black" points="331.04,-111.9 416.22,-111.9 "/>
<text text-anchor="middle" x="373.63" y="-95.3" font-family="Times,serif" font-size="14.00">Concatenate</text>
<polyline fill="none" stroke="black" points="416.22,-87.1 416.22,-136.7 "/>
<text text-anchor="middle" x="444.06" y="-120.1" font-family="Times,serif" font-size="14.00">input:</text>
<polyline fill="none" stroke="black" points="416.22,-111.9 471.89,-111.9 "/>
<text text-anchor="middle" x="444.06" y="-95.3" font-family="Times,serif" font-size="14.00">output:</text>
<polyline fill="none" stroke="black" points="471.89,-87.1 471.89,-136.7 "/>
<text text-anchor="middle" x="666.53" y="-108.1" font-family="Times,serif" font-size="14.00">[(None, 150, 150, 10), (None, 150, 150, 10), (None, 150, 150, 10)]</text>
<polyline fill="none" stroke="black" points="861.16,-87.1 861.16,-136.7 "/>
<text text-anchor="middle" x="927.49" y="-108.1" font-family="Times,serif" font-size="14.00">(None, 150, 150, 30)</text>
</g>
<!-- 139728648824048&#45;&gt;139728648116544 -->
<g id="edge16" class="edge">
<title>139728648824048&#45;&gt;139728648116544</title>
<path fill="none" stroke="black" d="M368.71,-173.65C421.31,-162.77 483.71,-149.87 537.43,-138.75"/>
<polygon fill="black" stroke="black" points="538.27,-142.15 547.35,-136.7 536.85,-135.3 538.27,-142.15"/>
</g>
<!-- 139728648420896&#45;&gt;139728648116544 -->
<g id="edge17" class="edge">
<title>139728648420896&#45;&gt;139728648116544</title>
<path fill="none" stroke="black" d="M662.42,-173.48C662.42,-165.27 662.42,-155.91 662.42,-147.05"/>
<polygon fill="black" stroke="black" points="665.92,-146.98 662.42,-136.98 658.92,-146.98 665.92,-146.98"/>
</g>
<!-- 139730727661872&#45;&gt;139728648116544 -->
<g id="edge18" class="edge">
<title>139730727661872&#45;&gt;139728648116544</title>
<path fill="none" stroke="black" d="M961.16,-173.65C907.66,-162.77 844.2,-149.87 789.56,-138.75"/>
<polygon fill="black" stroke="black" points="789.96,-135.26 779.46,-136.7 788.57,-142.12 789.96,-135.26"/>
</g>
<!-- 139730727950656 -->
<g id="node18" class="node">
<title>139730727950656</title>
<polygon fill="none" stroke="black" points="471,-0.5 471,-50.1 853.85,-50.1 853.85,-0.5 471,-0.5"/>
<text text-anchor="middle" x="501.94" y="-33.5" font-family="Times,serif" font-size="14.00">dense_9</text>
<polyline fill="none" stroke="black" points="471,-25.3 532.88,-25.3 "/>
<text text-anchor="middle" x="501.94" y="-8.7" font-family="Times,serif" font-size="14.00">Dense</text>
<polyline fill="none" stroke="black" points="532.88,-0.5 532.88,-50.1 "/>
<text text-anchor="middle" x="560.71" y="-33.5" font-family="Times,serif" font-size="14.00">input:</text>
<polyline fill="none" stroke="black" points="532.88,-25.3 588.55,-25.3 "/>
<text text-anchor="middle" x="560.71" y="-8.7" font-family="Times,serif" font-size="14.00">output:</text>
<polyline fill="none" stroke="black" points="588.55,-0.5 588.55,-50.1 "/>
<text text-anchor="middle" x="654.87" y="-21.5" font-family="Times,serif" font-size="14.00">(None, 150, 150, 30)</text>
<polyline fill="none" stroke="black" points="721.2,-0.5 721.2,-50.1 "/>
<text text-anchor="middle" x="787.52" y="-21.5" font-family="Times,serif" font-size="14.00">(None, 150, 150, 10)</text>
</g>
<!-- 139728648116544&#45;&gt;139730727950656 -->
<g id="edge19" class="edge">
<title>139728648116544&#45;&gt;139730727950656</title>
<path fill="none" stroke="black" d="M662.42,-86.88C662.42,-78.67 662.42,-69.31 662.42,-60.45"/>
<polygon fill="black" stroke="black" points="665.92,-60.38 662.42,-50.38 658.92,-60.38 665.92,-60.38"/>
</g>
</g>
</svg>
