<?xml version="1.0" encoding="UTF-8" standalone="no"?>
<!DOCTYPE svg PUBLIC "-//W3C//DTD SVG 1.1//EN"
 "http://www.w3.org/Graphics/SVG/1.1/DTD/svg11.dtd">
<!-- Generated by graphviz version 3.0.0 (20220226.1711)
 -->
<!-- Title: G Pages: 1 -->
<svg width="574pt" height="106pt"
 viewBox="0.00 0.00 688.88 127.60" xmlns="http://www.w3.org/2000/svg" xmlns:xlink="http://www.w3.org/1999/xlink">
<g id="graph0" class="graph" transform="scale(0.833333 0.833333) rotate(0) translate(4 123.6)">
<title>G</title>
<polygon fill="white" stroke="transparent" points="-4,4 -4,-123.6 684.88,-123.6 684.88,4 -4,4"/>
<!-- 139742024705312 -->
<g id="node1" class="node">
<title>139742024705312</title>
<polygon fill="none" stroke="black" points="0,-34.5 0,-84.1 78.19,-84.1 78.19,-34.5 0,-34.5"/>
<text text-anchor="middle" x="39.1" y="-67.5" font-family="Times,serif" font-size="14.00">input_1</text>
<polyline fill="none" stroke="black" points="0,-59.3 78.19,-59.3 "/>
<text text-anchor="middle" x="39.1" y="-42.7" font-family="Times,serif" font-size="14.00">InputLayer</text>
</g>
<!-- 139743791173008 -->
<g id="node2" class="node">
<title>139743791173008</title>
<polygon fill="none" stroke="black" points="114.19,-34.5 114.19,-84.1 168.19,-84.1 168.19,-34.5 114.19,-34.5"/>
<text text-anchor="middle" x="141.19" y="-67.5" font-family="Times,serif" font-size="14.00">lstm</text>
<polyline fill="none" stroke="black" points="114.19,-59.3 168.19,-59.3 "/>
<text text-anchor="middle" x="141.19" y="-42.7" font-family="Times,serif" font-size="14.00">LSTM</text>
</g>
<!-- 139742024705312&#45;&gt;139743791173008 -->
<g id="edge1" class="edge">
<title>139742024705312&#45;&gt;139743791173008</title>
<path fill="none" stroke="black" d="M78.22,-59.3C86.62,-59.3 95.48,-59.3 103.8,-59.3"/>
<polygon fill="black" stroke="black" points="103.97,-62.8 113.97,-59.3 103.97,-55.8 103.97,-62.8"/>
</g>
<!-- 139741690732848 -->
<g id="node3" class="node">
<title>139741690732848</title>
<polygon fill="none" stroke="black" points="204.19,-65.5 204.19,-115.1 266.07,-115.1 266.07,-65.5 204.19,-65.5"/>
<text text-anchor="middle" x="235.13" y="-98.5" font-family="Times,serif" font-size="14.00">dense_1</text>
<polyline fill="none" stroke="black" points="204.19,-90.3 266.07,-90.3 "/>
<text text-anchor="middle" x="235.13" y="-73.7" font-family="Times,serif" font-size="14.00">Dense</text>
</g>
<!-- 139743791173008&#45;&gt;139741690732848 -->
<g id="edge2" class="edge">
<title>139743791173008&#45;&gt;139741690732848</title>
<path fill="none" stroke="black" d="M168.29,-68.1C176.39,-70.83 185.51,-73.91 194.32,-76.88"/>
<polygon fill="black" stroke="black" points="193.48,-80.29 204.07,-80.16 195.71,-73.65 193.48,-80.29"/>
</g>
<!-- 139741665343136 -->
<g id="node5" class="node">
<title>139741665343136</title>
<polygon fill="none" stroke="black" points="306.01,-0.5 306.01,-50.1 360.01,-50.1 360.01,-0.5 306.01,-0.5"/>
<text text-anchor="middle" x="333.01" y="-33.5" font-family="Times,serif" font-size="14.00">dense</text>
<polyline fill="none" stroke="black" points="306.01,-25.3 360.01,-25.3 "/>
<text text-anchor="middle" x="333.01" y="-8.7" font-family="Times,serif" font-size="14.00">Dense</text>
</g>
<!-- 139743791173008&#45;&gt;139741665343136 -->
<g id="edge4" class="edge">
<title>139743791173008&#45;&gt;139741665343136</title>
<path fill="none" stroke="black" d="M168.59,-54.57C201.73,-48.63 258.76,-38.42 295.92,-31.76"/>
<polygon fill="black" stroke="black" points="296.61,-35.2 305.84,-29.99 295.38,-28.31 296.61,-35.2"/>
</g>
<!-- 139741664885104 -->
<g id="node4" class="node">
<title>139741664885104</title>
<polygon fill="none" stroke="black" points="302.07,-69.5 302.07,-119.1 363.95,-119.1 363.95,-69.5 302.07,-69.5"/>
<text text-anchor="middle" x="333.01" y="-102.5" font-family="Times,serif" font-size="14.00">dense_2</text>
<polyline fill="none" stroke="black" points="302.07,-94.3 363.95,-94.3 "/>
<text text-anchor="middle" x="333.01" y="-77.7" font-family="Times,serif" font-size="14.00">Dense</text>
</g>
<!-- 139741690732848&#45;&gt;139741664885104 -->
<g id="edge3" class="edge">
<title>139741690732848&#45;&gt;139741664885104</title>
<path fill="none" stroke="black" d="M266.2,-91.55C274.32,-91.89 283.24,-92.27 291.82,-92.62"/>
<polygon fill="black" stroke="black" points="291.9,-96.13 302.04,-93.05 292.2,-89.14 291.9,-96.13"/>
</g>
<!-- 139741664962928 -->
<g id="node6" class="node">
<title>139741664962928</title>
<polygon fill="none" stroke="black" points="399.95,-65.5 399.95,-115.1 461.82,-115.1 461.82,-65.5 399.95,-65.5"/>
<text text-anchor="middle" x="430.88" y="-98.5" font-family="Times,serif" font-size="14.00">dense_3</text>
<polyline fill="none" stroke="black" points="399.95,-90.3 461.82,-90.3 "/>
<text text-anchor="middle" x="430.88" y="-73.7" font-family="Times,serif" font-size="14.00">Dense</text>
</g>
<!-- 139741664885104&#45;&gt;139741664962928 -->
<g id="edge5" class="edge">
<title>139741664885104&#45;&gt;139741664962928</title>
<path fill="none" stroke="black" d="M364.08,-93.05C372.2,-92.71 381.12,-92.33 389.7,-91.98"/>
<polygon fill="black" stroke="black" points="390.07,-95.46 399.92,-91.55 389.78,-88.47 390.07,-95.46"/>
</g>
<!-- 139743791309968 -->
<g id="node7" class="node">
<title>139743791309968</title>
<polygon fill="none" stroke="black" points="497.82,-34.5 497.82,-84.1 583.01,-84.1 583.01,-34.5 497.82,-34.5"/>
<text text-anchor="middle" x="540.41" y="-67.5" font-family="Times,serif" font-size="14.00">concatenate</text>
<polyline fill="none" stroke="black" points="497.82,-59.3 583.01,-59.3 "/>
<text text-anchor="middle" x="540.41" y="-42.7" font-family="Times,serif" font-size="14.00">Concatenate</text>
</g>
<!-- 139741665343136&#45;&gt;139743791309968 -->
<g id="edge6" class="edge">
<title>139741665343136&#45;&gt;139743791309968</title>
<path fill="none" stroke="black" d="M360.02,-29.61C391.97,-34.89 446.91,-43.99 487.6,-50.72"/>
<polygon fill="black" stroke="black" points="487.18,-54.2 497.61,-52.38 488.32,-47.29 487.18,-54.2"/>
</g>
<!-- 139741664962928&#45;&gt;139743791309968 -->
<g id="edge7" class="edge">
<title>139741664962928&#45;&gt;139743791309968</title>
<path fill="none" stroke="black" d="M461.84,-81.66C469.96,-79.32 478.99,-76.72 487.94,-74.14"/>
<polygon fill="black" stroke="black" points="488.93,-77.5 497.57,-71.36 486.99,-70.77 488.93,-77.5"/>
</g>
<!-- 139741664486064 -->
<g id="node8" class="node">
<title>139741664486064</title>
<polygon fill="none" stroke="black" points="619.01,-34.5 619.01,-84.1 680.88,-84.1 680.88,-34.5 619.01,-34.5"/>
<text text-anchor="middle" x="649.95" y="-67.5" font-family="Times,serif" font-size="14.00">dense_4</text>
<polyline fill="none" stroke="black" points="619.01,-59.3 680.88,-59.3 "/>
<text text-anchor="middle" x="649.95" y="-42.7" font-family="Times,serif" font-size="14.00">Dense</text>
</g>
<!-- 139743791309968&#45;&gt;139741664486064 -->
<g id="edge8" class="edge">
<title>139743791309968&#45;&gt;139741664486064</title>
<path fill="none" stroke="black" d="M583.3,-59.3C591.67,-59.3 600.45,-59.3 608.77,-59.3"/>
<polygon fill="black" stroke="black" points="608.99,-62.8 618.99,-59.3 608.99,-55.8 608.99,-62.8"/>
</g>
</g>
</svg>
