<?xml version="1.0" encoding="UTF-8" standalone="no"?>
<!DOCTYPE svg PUBLIC "-//W3C//DTD SVG 1.1//EN"
 "http://www.w3.org/Graphics/SVG/1.1/DTD/svg11.dtd">
<!-- Generated by graphviz version 3.0.0 (20220226.1711)
 -->
<!-- Title: G Pages: 1 -->
<svg width="193pt" height="157pt"
 viewBox="0.00 0.00 144.97 118.00" xmlns="http://www.w3.org/2000/svg" xmlns:xlink="http://www.w3.org/1999/xlink">
<g id="graph0" class="graph" transform="scale(1.33333 1.33333) rotate(0) translate(4 114)">
<title>G</title>
<polygon fill="white" stroke="transparent" points="-4,4 -4,-114 140.97,-114 140.97,4 -4,4"/>
<!-- 140514030013024 -->
<g id="node1" class="node">
<title>140514030013024</title>
<polygon fill="none" stroke="black" points="0,-73.5 0,-109.5 136.97,-109.5 136.97,-73.5 0,-73.5"/>
<text text-anchor="middle" x="29.39" y="-87.3" font-family="Times,serif" font-size="14.00">input_3</text>
<polyline fill="none" stroke="black" points="58.78,-73.5 58.78,-109.5 "/>
<text text-anchor="middle" x="97.88" y="-87.3" font-family="Times,serif" font-size="14.00">InputLayer</text>
</g>
<!-- 140514021534496 -->
<g id="node2" class="node">
<title>140514021534496</title>
<polygon fill="none" stroke="black" points="12.06,-0.5 12.06,-36.5 124.92,-36.5 124.92,-0.5 12.06,-0.5"/>
<text text-anchor="middle" x="42.99" y="-14.3" font-family="Times,serif" font-size="14.00">dense_1</text>
<polyline fill="none" stroke="black" points="73.93,-0.5 73.93,-36.5 "/>
<text text-anchor="middle" x="99.42" y="-14.3" font-family="Times,serif" font-size="14.00">Dense</text>
</g>
<!-- 140514030013024&#45;&gt;140514021534496 -->
<g id="edge1" class="edge">
<title>140514030013024&#45;&gt;140514021534496</title>
<path fill="none" stroke="black" d="M68.49,-73.31C68.49,-65.29 68.49,-55.55 68.49,-46.57"/>
<polygon fill="black" stroke="black" points="71.99,-46.53 68.49,-36.53 64.99,-46.53 71.99,-46.53"/>
</g>
</g>
</svg>
