<?xml version="1.0" encoding="UTF-8" standalone="no"?>
<!DOCTYPE svg PUBLIC "-//W3C//DTD SVG 1.1//EN"
 "http://www.w3.org/Graphics/SVG/1.1/DTD/svg11.dtd">
<!-- Generated by graphviz version 3.0.0 (20220226.1711)
 -->
<!-- Title: G Pages: 1 -->
<svg width="445pt" height="255pt"
 viewBox="0.00 0.00 334.05 191.00" xmlns="http://www.w3.org/2000/svg" xmlns:xlink="http://www.w3.org/1999/xlink">
<g id="graph0" class="graph" transform="scale(1.33333 1.33333) rotate(0) translate(4 187)">
<title>G</title>
<polygon fill="white" stroke="transparent" points="-4,4 -4,-187 330.05,-187 330.05,4 -4,4"/>
<!-- 140012395079280 -->
<g id="node1" class="node">
<title>140012395079280</title>
<polygon fill="none" stroke="black" points="0,-146.5 0,-182.5 154.05,-182.5 154.05,-146.5 0,-146.5"/>
<text text-anchor="middle" x="37.93" y="-160.3" font-family="Times,serif" font-size="14.00">Team&#45;1&#45;In</text>
<polyline fill="none" stroke="black" points="75.86,-146.5 75.86,-182.5 "/>
<text text-anchor="middle" x="114.95" y="-160.3" font-family="Times,serif" font-size="14.00">InputLayer</text>
</g>
<!-- 140012849453808 -->
<g id="node3" class="node">
<title>140012849453808</title>
<polygon fill="none" stroke="black" points="54.49,-73.5 54.49,-109.5 271.56,-109.5 271.56,-73.5 54.49,-73.5"/>
<text text-anchor="middle" x="125.08" y="-87.3" font-family="Times,serif" font-size="14.00">Team&#45;Strength&#45;Model</text>
<polyline fill="none" stroke="black" points="195.68,-73.5 195.68,-109.5 "/>
<text text-anchor="middle" x="233.62" y="-87.3" font-family="Times,serif" font-size="14.00">Functional</text>
</g>
<!-- 140012395079280&#45;&gt;140012849453808 -->
<g id="edge1" class="edge">
<title>140012395079280&#45;&gt;140012849453808</title>
<path fill="none" stroke="black" d="M97.84,-146.31C108.83,-137.24 122.47,-125.98 134.44,-116.1"/>
<polygon fill="black" stroke="black" points="136.91,-118.59 142.4,-109.53 132.46,-113.2 136.91,-118.59"/>
</g>
<!-- 140012395080192 -->
<g id="node2" class="node">
<title>140012395080192</title>
<polygon fill="none" stroke="black" points="172,-146.5 172,-182.5 326.05,-182.5 326.05,-146.5 172,-146.5"/>
<text text-anchor="middle" x="209.93" y="-160.3" font-family="Times,serif" font-size="14.00">Team&#45;2&#45;In</text>
<polyline fill="none" stroke="black" points="247.86,-146.5 247.86,-182.5 "/>
<text text-anchor="middle" x="286.95" y="-160.3" font-family="Times,serif" font-size="14.00">InputLayer</text>
</g>
<!-- 140012395080192&#45;&gt;140012849453808 -->
<g id="edge2" class="edge">
<title>140012395080192&#45;&gt;140012849453808</title>
<path fill="none" stroke="black" d="M228.21,-146.31C217.22,-137.24 203.57,-125.98 191.61,-116.1"/>
<polygon fill="black" stroke="black" points="193.59,-113.2 183.65,-109.53 189.13,-118.59 193.59,-113.2"/>
</g>
<!-- 140012849905088 -->
<g id="node4" class="node">
<title>140012849905088</title>
<polygon fill="none" stroke="black" points="101.54,-0.5 101.54,-36.5 224.51,-36.5 224.51,-0.5 101.54,-0.5"/>
<text text-anchor="middle" x="131.7" y="-14.3" font-family="Times,serif" font-size="14.00">subtract</text>
<polyline fill="none" stroke="black" points="161.86,-0.5 161.86,-36.5 "/>
<text text-anchor="middle" x="193.18" y="-14.3" font-family="Times,serif" font-size="14.00">Subtract</text>
</g>
<!-- 140012849453808&#45;&gt;140012849905088 -->
<g id="edge3" class="edge">
<title>140012849453808&#45;&gt;140012849905088</title>
<path fill="none" stroke="black" d="M163.02,-73.31C163.02,-65.29 163.02,-55.55 163.02,-46.57"/>
<polygon fill="black" stroke="black" points="166.52,-46.53 163.02,-36.53 159.52,-46.53 166.52,-46.53"/>
</g>
</g>
</svg>
